<?xml version="1.0" encoding="UTF-8" standalone="no"?>
<!-- Created with Inkscape (http://www.inkscape.org/) -->

<svg
   xmlns:dc="http://purl.org/dc/elements/1.1/"
   xmlns:cc="http://creativecommons.org/ns#"
   xmlns:rdf="http://www.w3.org/1999/02/22-rdf-syntax-ns#"
   xmlns:svg="http://www.w3.org/2000/svg"
   xmlns="http://www.w3.org/2000/svg"
   xmlns:sodipodi="http://sodipodi.sourceforge.net/DTD/sodipodi-0.dtd"
   xmlns:inkscape="http://www.inkscape.org/namespaces/inkscape"
   width="744.09448819"
   height="1052.3622047"
   id="svg2815"
   version="1.1"
   inkscape:version="0.47 r22583"
   sodipodi:docname="lamb.svg">
  <defs
     id="defs2817">
    <inkscape:perspective
       sodipodi:type="inkscape:persp3d"
       inkscape:vp_x="0 : 526.18109 : 1"
       inkscape:vp_y="0 : 1000 : 0"
       inkscape:vp_z="744.09448 : 526.18109 : 1"
       inkscape:persp3d-origin="372.04724 : 350.78739 : 1"
       id="perspective2823" />
    <inkscape:perspective
       id="perspective2833"
       inkscape:persp3d-origin="0.5 : 0.33333333 : 1"
       inkscape:vp_z="1 : 0.5 : 1"
       inkscape:vp_y="0 : 1000 : 0"
       inkscape:vp_x="0 : 0.5 : 1"
       sodipodi:type="inkscape:persp3d" />
  </defs>
  <sodipodi:namedview
     id="base"
     pagecolor="#ffffff"
     bordercolor="#666666"
     borderopacity="1.0"
     inkscape:pageopacity="0.0"
     inkscape:pageshadow="2"
     inkscape:zoom="0.35"
     inkscape:cx="672.48755"
     inkscape:cy="680.20545"
     inkscape:document-units="px"
     inkscape:current-layer="layer1"
     showgrid="false"
     inkscape:window-width="1024"
     inkscape:window-height="538"
     inkscape:window-x="-8"
     inkscape:window-y="-8"
     inkscape:window-maximized="1" />
  <metadata
     id="metadata2820">
    <rdf:RDF>
      <cc:Work
         rdf:about="">
        <dc:format>image/svg+xml</dc:format>
        <dc:type
           rdf:resource="http://purl.org/dc/dcmitype/StillImage" />
        <dc:title></dc:title>
      </cc:Work>
    </rdf:RDF>
  </metadata>
  <g
     inkscape:label="Layer 1"
     inkscape:groupmode="layer"
     id="layer1">
    <path
       style="fill:#000000;fill-opacity:1;stroke:none"
       d="m 606.66139,185.36665 c -7.44658,0.12395 -16.03701,6.42902 -22.21709,8.89846 -7.73017,2.96782 -16.29016,7.56585 -24.42717,10.35247 -4.16605,-7.66976 -14.23323,-7.8999 -25.41588,-8.49135 -4.53415,-7.63224 -16.17903,2.63557 -21.57733,-4.71095 -6.02662,0.30796 -15.45945,-0.61473 -20.70493,0.93056 -9.6346,6.37216 -11.23888,8.72975 -20.06517,14.3655 -2.85931,6.13495 -10.22487,8.51089 -15.58686,5.23439 -12.19471,-0.98008 -17.60792,-9.11045 -32.33692,-7.09551 -12.65908,-12.16858 -16.028,7.73121 -8.14239,14.77262 6.6146,1.99381 9.28927,5.41174 13.14415,8.49135 2.71699,6.51508 14.61662,8.81777 18.78565,15.00526 7.89936,2.75901 16.1162,5.16162 10.35246,17.85509 2.16072,16.47952 -10.40031,18.93024 -22.56604,13.2023 -18.48957,5.9461 -35.65246,-2.81462 -53.56529,1.86112 -16.60848,4.30147 -32.78284,-0.94817 -49.84305,2.79168 -15.6187,7.95422 -30.82818,6.5949 -46.99321,11.28302 -10.00892,4.71912 -20.44867,7.52143 -29.13812,13.2023 -9.13416,5.77775 -20.25162,6.94753 -29.13812,12.21358 -7.49081,4.61948 -22.78557,30.50139 -25.823,27.21885 -1.76116,1.41824 -3.95155,0.76532 -4.24568,3.78039 -5.06551,5.22107 -6.78057,12.70369 -12.21358,19.71621 -6.7671,15.25484 -1.20234,37.61037 0,54.55401 -2.74954,12.49801 -2.30983,27.43445 12.21358,21.63548 3.17246,-9.3053 2.53319,-7.65505 4.6528,-13.2023 15.54446,-40.68149 6.07576,2.3987 -3.72224,24.42717 -2.49015,12.79432 -13.12763,12.73252 -15.00526,22.56605 2.4524,15.90611 -0.54149,31.02157 -0.75608,47.63297 -3.67533,17.03298 0.69889,33.4124 -1.80295,50.71545 -5.0556,7.89357 -7.46803,26.72107 6.28127,24.83428 8.70541,-0.84386 -7.33113,3.9135 0,11.28303 7.78567,5.1868 21.05149,13.73076 29.0218,5.93231 11.2707,-6.37945 2.4544,-21.05542 0.11632,-29.42892 -7.65975,-9.71928 0.18146,-29.73422 3.78039,-41.81698 2.47592,-11.20488 9.12817,-22.37515 13.14414,-34.37251 3.37023,-4.12688 2.40172,-11.58585 9.42191,-15.00526 6.05803,-10.91746 12.74164,-13.32493 13.14414,0.93056 0.95725,12.09201 8.98321,20.69324 7.50263,33.09299 -0.64182,11.71894 0.81752,20.52941 5.64151,30.82476 4.80163,9.80423 9.78215,14.44085 11.28303,27.277 3.58148,15.5983 18.99644,27.08826 25.41588,43.21282 0.37155,1.44858 3.64465,3.26605 1.33768,4.01303 -3.75579,1.21611 4.501,1.63609 6.92103,3.66408 2.36453,1.98147 -3.97991,3.02264 -1.22136,5.35071 3.07083,2.59162 17.2756,2.41056 20.58861,3.66407 0.14498,10.30477 17.31532,13.76178 28.26572,5.40888 8.2323,-3.6794 -2.31551,-18.12617 -6.10679,-27.74228 -1.85259,-6.14325 -7.15279,-7.63541 -10.2943,-18.78566 -2.90657,-4.91614 -8.42884,-6.14088 -10.46879,-18.78565 -7.08406,-7.86023 -9.12197,-19.51516 -11.22486,-30.59212 -3.04297,-12.53248 -16.57633,-23.15615 -0.8724,-28.61468 0.63903,-13.80787 1.0771,-27.71991 7.50263,-38.56002 3.07577,-12.88846 10.28185,-23.4889 15.99397,-34.77963 3.42669,-7.71571 0.88443,-25.11744 18.78566,-15.99398 33.31822,11.16825 24.78288,4.50087 60.13735,5.64151 5.66415,7.0511 20.38534,5.23557 22.56605,17.8551 2.63443,13.47629 3.16664,28.01158 7.56079,40.42114 1.82602,14.73811 -3.16154,26.98281 -2.79168,42.34042 -0.46485,9.64745 -11.64194,14.857 -13.7839,21.86813 -1.30378,3.25625 7.29804,5.873 -0.2908,8.78215 -3.57442,1.37026 4.15586,5.58539 6.57207,4.82727 2.58512,-0.81111 -0.2211,8.54139 9.30559,4.88543 0.57699,1.79341 -0.72302,5.2874 1.22136,6.10679 4.53418,1.91076 14.17695,-0.15317 16.63374,3.31512 -2.73734,7.60473 14.35238,13.09813 20.70493,4.71095 -1.99665,-2.61943 0.0422,-7.66951 -1.1632,-10.46878 -3.22887,-7.49763 -6.90188,-15.06322 -6.28127,-23.61293 4.62428,-14.5596 -11.14774,-38.02672 1.80295,-44.89946 0.28301,1.19959 6.29992,0.16601 3.1988,5.2344 -1.164,1.90243 3.20094,2.88136 4.59463,2.38455 2.38441,-0.84995 1.0936,3.60246 1.04688,5.64151 -0.12693,5.52698 7.03028,1.84376 7.15367,6.45576 4.12098,4.66221 5.7486,12.71854 8.43319,17.68061 4.45697,8.23805 5.72121,11.91938 4.76911,21.92629 4.19342,13.90122 6.055,28.27073 2.84984,47.34217 -0.37146,2.21023 1.03558,4.33594 1.80296,6.39759 4.66692,-4.77735 3.33285,1.22685 5.64151,1.27952 1.30678,0.0298 2.7452,-4.2734 4.24567,-0.17438 2.39761,6.5497 15.51623,-2.51307 22.04261,-2.26824 -0.42441,9.66927 24.40322,9.74252 21.57733,-2.55904 7.65802,-7.37564 -0.76423,-12.48143 -4.65279,-17.21533 -1.96179,-5.89159 -4.11508,-6.32477 -8.89847,-8.20055 -2.88399,-6.56387 -6.09829,-13.06827 -9.42191,-20.00701 -1.13524,-8.66933 -8.93481,-15.29766 -10.35246,-23.49661 -6.51164,-11.86978 -3.83044,-27.07721 -8.89847,-39.49059 -3.63954,-9.25969 -0.11483,-27.12504 -13.14414,-27.21884 -8.10044,-7.74794 -9.01408,-22.87425 -5.81599,-33.50011 1.11455,-10.06848 8.41653,-16.72214 16.1103,-22.91501 5.97184,-6.24466 9.30541,-10.42581 16.98269,-15.93581 2.36356,-5.32431 5.22174,-6.74287 9.24743,-9.88719 12.2254,-17.74121 5.16227,-26.815 9.82902,-44.95762 0.74899,-18.31375 -5.2757,-33.95324 -3.14063,-52.34392 5.01387,-16.4212 6.95859,-34.10044 7.73527,-52.16945 -1.32138,-9.27426 1.18017,-18.72146 11.05038,-23.96189 8.81001,-5.59502 12.71666,-22.06978 26.34645,-23.55476 6.35973,-3.16556 11.01494,-7.44509 15.99397,-13.14415 10.77369,-11.18535 -1.02073,-14.97027 -9.4219,-15.00525 -2.10163,-1.69759 -4.43884,-2.36776 -6.92103,-2.3264 l 0,-9e-5 z M 489.87627,244.05 c 6.02109,0.2155 5.44611,5.16248 4.12935,8.95663 -0.46217,1.50833 -2.3866,2.56967 -3.83855,1.7448 -1.37017,-0.75984 -2.17548,-0.94854 -3.78039,-1.27952 -1.46712,-0.22231 -3.15536,0.14796 -4.42016,-0.81424 -0.30189,-0.26001 -3.45877,-0.16471 -3.37327,-0.5816 0.83863,0.22105 4.74242,-4.45268 5.11807,-5.23439 0.62654,-0.58772 1.21023,-1.18138 1.80296,-1.80296 1.42883,-0.62621 2.70565,-0.9583 4.36199,-0.98872 z m 52.46025,0.81424 c 1.01522,-0.0717 1.9101,0.0149 2.96615,0.2908 0.68188,0.50995 1.39169,1.04161 2.09376,1.51216 0.53693,0.70629 4.15986,4.66995 4.82727,4.30383 0.18678,0.39704 -2.60022,0.85307 -2.79167,1.1632 -0.83663,1.17362 -2.39398,1.15045 -3.60592,1.62848 -1.72248,1.37801 -2.19481,4.0062 -6.45575,2.15192 -1.07695,-0.46867 -1.8377,-1.81911 -2.44272,-2.6172 0.48406,-1.76804 0.86042,-7.48361 4.362,-8.31687 0.36107,-0.0653 0.70847,-0.0925 1.04688,-0.11632 z m -17.73878,42.86386 c 9.87007,0 12.66604,2.09698 13.02782,6.57207 0.31161,3.85468 -3.60971,5.9832 -4.94359,5.87416 -0.33615,-1.55277 -0.76028,-3.1884 -2.21008,-3.25696 -1.44979,-0.0685 -2.99533,1.21898 -4.71095,2.67536 l -0.46528,12.79518 11.7483,1.1632 c 0,0 2.00087,2.12509 -12.9115,2.09375 -14.91239,-0.0313 -15.5287,-2.09375 -15.5287,-2.09375 l 13.66758,-0.93056 -0.46527,-12.67886 c 0,0 -2.1356,-3.17697 -3.54776,-3.02432 -1.41216,0.15261 -2.09376,4.01303 -2.09376,4.01303 0,0 -4.71095,-0.24356 -4.71095,-4.94359 0,-4.70003 3.27408,-8.25871 13.14414,-8.25871 z"
       id="path2839"
       sodipodi:nodetypes="ccccccccccccccccccccccccsccccccccccccccccssscccccccccccccccsscsccsccssscscscssccccccccccccccccccccccsccccccccccccsccccccscccscccscscc" />
  </g>
</svg>
